<svg width="80" height="80" viewBox="0 0 80 80" fill="none" xmlns="http://www.w3.org/2000/svg">
<g clip-path="url(#clip0_325_550)">
<path fill-rule="evenodd" clip-rule="evenodd" d="M21.8097 6.6429C26.7571 2.37667 33.0672 0.0204857 39.6 0C52.9155 0 63.9688 9.9 65.1717 22.6661C73.0521 23.7798 79.2 30.3782 79.2 38.4764C79.2 47.3666 71.7849 54.45 62.8006 54.45H49.5C48.8436 54.45 48.2141 54.1892 47.7499 53.7251C47.2858 53.2609 47.025 52.6314 47.025 51.975C47.025 51.3186 47.2858 50.6891 47.7499 50.2249C48.2141 49.7608 48.8436 49.5 49.5 49.5H62.8056C69.196 49.5 74.25 44.4906 74.25 38.4764C74.25 32.4571 69.201 27.4478 62.8006 27.4478H60.3256V24.9728C60.3306 13.9838 51.1236 4.95 39.6 4.95C34.2534 4.97136 29.0904 6.90245 25.042 10.395C21.2949 13.6224 19.3347 17.5131 19.3347 20.5673V22.7849L17.1319 23.0274C10.2168 23.7848 4.95 29.4624 4.95 36.2241C4.95 43.4858 11.0385 49.5 18.7159 49.5H29.7C30.3564 49.5 30.9859 49.7608 31.4501 50.2249C31.9142 50.6891 32.175 51.3186 32.175 51.975C32.175 52.6314 31.9142 53.2609 31.4501 53.7251C30.9859 54.1892 30.3564 54.45 29.7 54.45H18.7159C8.4546 54.45 0 46.3617 0 36.2241C0 27.4973 6.2667 20.2703 14.5629 18.4388C15.2707 14.1669 18.018 9.9099 21.8097 6.6429Z" fill="#E2E8F0"/>
<path fill-rule="evenodd" clip-rule="evenodd" d="M37.8477 20.5227C38.0776 20.2922 38.3507 20.1094 38.6514 19.9846C38.9521 19.8598 39.2744 19.7956 39.6 19.7956C39.9255 19.7956 40.2479 19.8598 40.5486 19.9846C40.8493 20.1094 41.1224 20.2922 41.3523 20.5227L56.2023 35.3727C56.667 35.8375 56.9281 36.4678 56.9281 37.125C56.9281 37.7823 56.667 38.4126 56.2023 38.8773C55.7375 39.3421 55.1072 39.6031 54.45 39.6031C53.7927 39.6031 53.1624 39.3421 52.6977 38.8773L42.075 28.2497V71.775C42.075 72.4314 41.8142 73.0609 41.3501 73.5251C40.8859 73.9893 40.2564 74.25 39.6 74.25C38.9436 74.25 38.314 73.9893 37.8499 73.5251C37.3857 73.0609 37.125 72.4314 37.125 71.775V28.2497L26.5023 38.8773C26.0375 39.3421 25.4072 39.6031 24.75 39.6031C24.0927 39.6031 23.4624 39.3421 22.9977 38.8773C22.5329 38.4126 22.2719 37.7823 22.2719 37.125C22.2719 36.4678 22.5329 35.8375 22.9977 35.3727L37.8477 20.5227Z" fill="#E2E8F0"/>
</g>
<defs>
<clipPath id="clip0_325_550">
<rect width="79.2" height="79.2" fill="white"/>
</clipPath>
</defs>
</svg>
