<svg width="12" height="14" viewBox="0 0 12 14" fill="none" xmlns="http://www.w3.org/2000/svg">
<path d="M1.92388 7.85714L2.12634 8.00381L2.12634 8.0038L1.92388 7.85714ZM1.16863 8.8996L0.966175 8.75292L0.966166 8.75293L1.16863 8.8996ZM1.4063 10.0422L1.50828 9.81398L1.50827 9.81398L1.4063 10.0422ZM10.5937 10.0422L10.4917 9.81398L10.4917 9.81398L10.5937 10.0422ZM10.8314 8.8996L11.0338 8.75293L11.0338 8.75292L10.8314 8.8996ZM10.0761 7.85714L9.87363 8.00379L9.87365 8.00382L10.0761 7.85714ZM4.53247 11.7052L4.55511 11.4562L4.23681 11.4273L4.28537 11.7432L4.53247 11.7052ZM7.46756 11.7052L7.71465 11.7432L7.76322 11.4273L7.44492 11.4562L7.46756 11.7052ZM2.6834 4.69229C2.6834 2.78293 4.17638 1.25 6 1.25V0.75C3.88406 0.75 2.1834 2.52325 2.1834 4.69229H2.6834ZM2.6834 6.27468V4.69229H2.1834V6.27468H2.6834ZM2.12634 8.0038C2.48838 7.50403 2.6834 6.89731 2.6834 6.27468H2.1834C2.1834 6.79334 2.02085 7.29714 1.72142 7.71047L2.12634 8.0038ZM1.37108 9.04627L2.12634 8.00381L1.72143 7.71046L0.966175 8.75292L1.37108 9.04627ZM1.50827 9.81398C1.24536 9.69652 1.15181 9.34895 1.37109 9.04626L0.966166 8.75293C0.607519 9.24802 0.682878 9.99287 1.30433 10.2705L1.50827 9.81398ZM6 10.5961C3.7009 10.5961 2.27 10.1543 1.50828 9.81398L1.30433 10.2705C2.13408 10.6412 3.63496 11.0961 6 11.0961V10.5961ZM10.4917 9.81398C9.73 10.1543 8.29912 10.5961 6 10.5961V11.0961C8.36505 11.0961 9.86592 10.6412 10.6957 10.2705L10.4917 9.81398ZM10.6289 9.04626C10.8482 9.34894 10.7546 9.69652 10.4917 9.81398L10.6956 10.2705C11.3171 9.99288 11.3925 9.24803 11.0338 8.75293L10.6289 9.04626ZM9.87365 8.00382L10.6289 9.04627L11.0338 8.75292L10.2785 7.71046L9.87365 8.00382ZM9.31661 6.27468C9.31661 6.89732 9.51165 7.50403 9.87363 8.00379L10.2786 7.71049C9.97917 7.29714 9.81661 6.79334 9.81661 6.27468H9.31661ZM9.31661 4.69229V6.27468H9.81661V4.69229H9.31661ZM6 1.25C7.82362 1.25 9.31661 2.78293 9.31661 4.69229H9.81661C9.81661 2.52325 8.11594 0.75 6 0.75V1.25ZM4.28537 11.7432C4.41567 12.5907 5.12778 13.25 6.00002 13.25V12.75C5.39104 12.75 4.87492 12.2874 4.77957 11.6672L4.28537 11.7432ZM6.00002 11.5192C5.47356 11.5192 4.99273 11.496 4.55511 11.4562L4.50983 11.9542C4.96292 11.9954 5.45887 12.0192 6.00002 12.0192V11.5192ZM7.44492 11.4562C7.0073 11.496 6.52641 11.5192 6.00002 11.5192V12.0192C6.5411 12.0192 7.03711 11.9954 7.49019 11.9542L7.44492 11.4562ZM6.00002 13.25C6.87225 13.25 7.58435 12.5907 7.71465 11.7432L7.22046 11.6672C7.12511 12.2874 6.60899 12.75 6.00002 12.75V13.25Z" fill="#5C5C76"/>
</svg>
