<svg width="24" height="24" viewBox="0 0 24 24" fill="none" xmlns="http://www.w3.org/2000/svg">
<path d="M16.0763 4.13138H16.0816M18.2067 4.13138H18.212M20.337 4.13138H20.3424M16.6089 7.26276H14.4786C14.1961 7.26276 13.9251 7.15279 13.7254 6.95704C13.5256 6.76129 13.4134 6.4958 13.4134 6.21897V2.04379C13.4134 1.76696 13.5256 1.50147 13.7254 1.30572C13.9251 1.10997 14.1961 1 14.4786 1H21.9348C22.2173 1 22.4882 1.10997 22.688 1.30572C22.8877 1.50147 23 1.76696 23 2.04379V6.21897C23 6.4958 22.8877 6.76129 22.688 6.95704C22.4882 7.15279 22.2173 7.26276 21.9348 7.26276H19.2719L16.6089 9.87225V7.26276Z" stroke="#BFBFBF" stroke-width="1.5" stroke-linecap="round" stroke-linejoin="round"/>
<path d="M0.999992 4.15821C0.999992 3.53356 1.25321 2.9345 1.70395 2.49281C2.15469 2.05112 2.76603 1.80298 3.40347 1.80298H7.34517C7.59729 1.80317 7.84296 1.88105 8.04741 2.02561C8.25187 2.17016 8.40475 2.37407 8.48442 2.60847L10.2846 7.89948C10.3758 8.16838 10.365 8.46049 10.2542 8.72222C10.1434 8.98395 9.94003 9.19775 9.68135 9.3244L6.96903 10.6551C8.29853 13.5385 10.6553 15.848 13.5978 17.1508L14.9558 14.4929C15.085 14.2395 15.3032 14.0401 15.5703 13.9316C15.8374 13.823 16.1355 13.8124 16.4099 13.9018L21.8093 15.6658C22.0487 15.744 22.2569 15.894 22.4044 16.0946C22.552 16.2951 22.6313 16.5361 22.6313 16.7834V20.6448C22.6313 21.2694 22.3781 21.8685 21.9273 22.3102C21.4766 22.7519 20.8652 23 20.2278 23H19.0261C9.07087 23 0.999992 15.0912 0.999992 5.33582V4.15821Z" stroke="#BFBFBF" stroke-width="1.5" stroke-linecap="round" stroke-linejoin="round"/>
</svg>
