<svg width="24" height="24" viewBox="0 0 24 24" fill="none" xmlns="http://www.w3.org/2000/svg">
<circle cx="12" cy="12" r="11.75" fill="#F2F2FB" fill-opacity="0.4" stroke="#5C5C76" stroke-width="0.5"/>
<path d="M7.92388 12.8571L8.12634 13.0038L8.12634 13.0038L7.92388 12.8571ZM7.16863 13.8996L6.96617 13.7529L6.96617 13.7529L7.16863 13.8996ZM7.4063 15.0422L7.50828 14.814L7.50827 14.814L7.4063 15.0422ZM16.5937 15.0422L16.4917 14.814L16.4917 14.814L16.5937 15.0422ZM16.8314 13.8996L17.0338 13.7529L17.0338 13.7529L16.8314 13.8996ZM16.0761 12.8571L15.8736 13.0038L15.8736 13.0038L16.0761 12.8571ZM10.5325 16.7052L10.5551 16.4562L10.2368 16.4273L10.2854 16.7432L10.5325 16.7052ZM13.4676 16.7052L13.7147 16.7432L13.7632 16.4273L13.4449 16.4562L13.4676 16.7052ZM8.6834 9.69229C8.6834 7.78293 10.1764 6.25 12 6.25V5.75C9.88406 5.75 8.1834 7.52325 8.1834 9.69229H8.6834ZM8.6834 11.2747V9.69229H8.1834V11.2747H8.6834ZM8.12634 13.0038C8.48838 12.504 8.6834 11.8973 8.6834 11.2747H8.1834C8.1834 11.7933 8.02085 12.2971 7.72142 12.7105L8.12634 13.0038ZM7.37108 14.0463L8.12634 13.0038L7.72143 12.7105L6.96617 13.7529L7.37108 14.0463ZM7.50827 14.814C7.24536 14.6965 7.15181 14.349 7.37109 14.0463L6.96617 13.7529C6.60752 14.248 6.68288 14.9929 7.30433 15.2705L7.50827 14.814ZM12 15.5961C9.7009 15.5961 8.27 15.1543 7.50828 14.814L7.30433 15.2705C8.13408 15.6412 9.63496 16.0961 12 16.0961V15.5961ZM16.4917 14.814C15.73 15.1543 14.2991 15.5961 12 15.5961V16.0961C14.3651 16.0961 15.8659 15.6412 16.6957 15.2705L16.4917 14.814ZM16.6289 14.0463C16.8482 14.3489 16.7546 14.6965 16.4917 14.814L16.6956 15.2705C17.3171 14.9929 17.3925 14.248 17.0338 13.7529L16.6289 14.0463ZM15.8736 13.0038L16.6289 14.0463L17.0338 13.7529L16.2785 12.7105L15.8736 13.0038ZM15.3166 11.2747C15.3166 11.8973 15.5117 12.504 15.8736 13.0038L16.2786 12.7105C15.9792 12.2971 15.8166 11.7933 15.8166 11.2747H15.3166ZM15.3166 9.69229V11.2747H15.8166V9.69229H15.3166ZM12 6.25C13.8236 6.25 15.3166 7.78293 15.3166 9.69229H15.8166C15.8166 7.52325 14.1159 5.75 12 5.75V6.25ZM10.2854 16.7432C10.4157 17.5907 11.1278 18.25 12 18.25V17.75C11.391 17.75 10.8749 17.2874 10.7796 16.6672L10.2854 16.7432ZM12 16.5192C11.4736 16.5192 10.9927 16.496 10.5551 16.4562L10.5098 16.9542C10.9629 16.9954 11.4589 17.0192 12 17.0192V16.5192ZM13.4449 16.4562C13.0073 16.496 12.5264 16.5192 12 16.5192V17.0192C12.5411 17.0192 13.0371 16.9954 13.4902 16.9542L13.4449 16.4562ZM12 18.25C12.8723 18.25 13.5844 17.5907 13.7147 16.7432L13.2205 16.6672C13.1251 17.2874 12.609 17.75 12 17.75V18.25Z" fill="#5C5C76"/>
<circle cx="15" cy="8" r="2.5" fill="#010080" stroke="#5C5C76"/>
</svg>
