<svg width="20" height="20" viewBox="0 0 20 20" fill="none" xmlns="http://www.w3.org/2000/svg">
<path d="M14.1667 9.16667H5.83335C4.91288 9.16667 4.16669 9.91286 4.16669 10.8333V15.8333C4.16669 16.7538 4.91288 17.5 5.83335 17.5H14.1667C15.0872 17.5 15.8334 16.7538 15.8334 15.8333V10.8333C15.8334 9.91286 15.0872 9.16667 14.1667 9.16667Z" stroke="#94A3B8" stroke-width="1.5" stroke-linecap="round" stroke-linejoin="round"/>
<path d="M10 14.1667C10.4603 14.1667 10.8334 13.7936 10.8334 13.3333C10.8334 12.8731 10.4603 12.5 10 12.5C9.53978 12.5 9.16669 12.8731 9.16669 13.3333C9.16669 13.7936 9.53978 14.1667 10 14.1667Z" stroke="#94A3B8" stroke-width="2" stroke-linecap="round" stroke-linejoin="round"/>
<path d="M6.66669 9.16667V5.83333C6.66669 4.94928 7.01788 4.10143 7.643 3.47631C8.26812 2.85119 9.11597 2.5 10 2.5C10.8841 2.5 11.7319 2.85119 12.357 3.47631C12.9822 4.10143 13.3334 4.94928 13.3334 5.83333V9.16667" stroke="#94A3B8" stroke-width="1.5" stroke-linecap="round" stroke-linejoin="round"/>
</svg>
